<?xml version="1.0" ?>
<svg baseProfile="full" height="300" version="1.1" viewBox="[0, 0, 300, 300]" width="300" xmlns="http://www.w3.org/2000/svg" xmlns:ev="http://www.w3.org/2001/xml-events" xmlns:xlink="http://www.w3.org/1999/xlink">
	<defs/>
	<path d="M116,221c0,-7.71784 6,-11.18364 6,-20" fill="none" stroke="black" stroke-linecap="round" stroke-width="5"/>
	<path d="M157,224c5.24854,0 4,-13.5561 4,-17" fill="none" stroke="black" stroke-linecap="round" stroke-width="5"/>
	<path d="M173,207c-28.65182,0 -53.92992,1.60511 -69,-21c-6.12386,-9.18578 2.96473,-44.03527 -1,-48c-4.95315,-4.95315 -37.70312,7.40623 -31,-6c2.11337,-4.22675 10.3213,-0.3213 13,-3c3.53539,-3.53539 10.30455,-6.30455 14,-10c9.73109,-9.73109 10.77996,-35.22004 33,-13c9.33805,9.33805 -3.50135,35.49865 5,44c5.69342,5.69342 43.52786,8.84262 53,12c7.40363,2.46788 18.98331,12.96661 23,21c2.7673,5.53459 9.65142,6.65142 13,10c1.60344,1.60344 -4.87932,5 -6,5c-2.04689,0 -14.41031,3.41031 -16,5c-3.57437,3.57437 -28.23123,0 -34,0" fill="none" stroke="black" stroke-linecap="round" stroke-width="5"/>
	<path d="M112,220c-3.7534,0 -12.28816,6 -18,6" fill="none" stroke="black" stroke-linecap="round" stroke-width="5"/>
	<path d="M118,222c4.7479,0 3,17.0958 3,20" fill="none" stroke="black" stroke-linecap="round" stroke-width="5"/>
	<path d="M116,224c-5.10834,0 -11.87429,9.74858 -14,14" fill="none" stroke="black" stroke-linecap="round" stroke-width="5"/>
	<path d="M160,227c1.34711,0 16,19.84578 16,17" fill="none" stroke="black" stroke-linecap="round" stroke-width="5"/>
	<path d="M163,229c-1.67762,3.35523 -8.23871,16 -12,16" fill="none" stroke="black" stroke-linecap="round" stroke-width="5"/>
	<path d="M151,229c-5,0 -10,0 -15,0" fill="none" stroke="black" stroke-linecap="round" stroke-width="5"/>
	<path d="M112,123c0,-1 0,-2 0,-3" fill="none" stroke="black" stroke-linecap="round" stroke-width="5"/>
	<path d="M98,121c0,3.66667 0,7.33333 0,11" fill="none" stroke="black" stroke-linecap="round" stroke-width="5"/>
</svg>
