<?xml version="1.0" ?>
<svg baseProfile="full" height="300" version="1.1" viewBox="[0, 0, 300, 300]" width="300" xmlns="http://www.w3.org/2000/svg" xmlns:ev="http://www.w3.org/2001/xml-events" xmlns:xlink="http://www.w3.org/1999/xlink">
	<defs/>
	<path d="M144,81c-34.11036,0 -49.48491,4.48491 -73,28c-1.17851,1.17851 3.33333,0 5,0c4,0 8,0 12,0c2.29465,0 7.3524,10.3524 9,12c14.22879,14.22879 45.36592,47.34148 68,53c21.00842,5.25211 42.29683,-7.02968 62,-9c1.25083,-0.12508 26,1 26,1c0,0 -4.73123,-1.86562 -5,-2c-15.22408,-7.61204 -29.23553,-5.74518 -45,-11c-2.18323,-0.72774 -4.14644,-7.28731 -8,-9c-4.37938,-1.94639 -10.1085,-3.05425 -14,-5c-2.2691,-1.13455 0.33922,-6.66078 -1,-8c-12.60793,-12.60793 -29.31844,-20.31844 -40,-31c-4.45371,-4.45371 6.95281,-8.90562 8,-11c2.02254,-4.04507 -2,-8.56905 -2,-12" fill="none" stroke="black" stroke-linecap="round" stroke-width="5"/>
	<path d="M168,167c4.36293,4.36293 16.18722,36 5,36c-2.10819,0 1.72137,-3.91031 2,-6c0.44055,-3.30409 0,-6.66667 0,-10c0,-6.14043 -2.71341,-25.28659 2,-30" fill="none" stroke="black" stroke-linecap="round" stroke-width="5"/>
	<path d="M153,172c-2.79902,0 -10.76066,15.76918 -12,18c-1.49247,2.68644 -4.17307,11.17307 -2,9c8.81585,-8.81585 14,-22.54594 14,-35" fill="none" stroke="black" stroke-linecap="round" stroke-width="5"/>
	<path d="M141,131c0,27.74069 81.94159,23.05841 97,8c1.05409,-1.05409 -2.5538,-1.63845 -4,-2c-9.95011,-2.48753 -21.75187,-1 -32,-1c-19.32778,0 -29.53663,-9.76831 -44,-17c-8.42964,-4.21482 -31.85206,7.04931 -8,15" fill="none" stroke="black" stroke-linecap="round" stroke-width="5"/>
</svg>
