<?xml version="1.0" ?>
<svg baseProfile="full" height="300" version="1.1" viewBox="[0, 0, 300, 300]" width="300" xmlns="http://www.w3.org/2000/svg" xmlns:ev="http://www.w3.org/2001/xml-events" xmlns:xlink="http://www.w3.org/1999/xlink">
	<defs/>
	<path d="M82,78c-9.02422,9.02422 -31.0078,21 -44,21c-2.33333,0 4.66667,0 7,0c3.39935,0 6.65888,1.37354 10,2c6.04099,1.13269 24.91903,-2.38731 30,1c0.83205,0.5547 0,2 0,3c0,9.86069 2.97082,16.91247 6,26c1.62726,4.88179 5.64638,7.88116 8,12c18.16378,31.78662 12.37708,41.59647 54,48c37.6942,5.79911 29.71405,-18.57135 52,-26c12.51716,-4.17239 44.14701,-5 59,-5c2.53859,0 -4.93426,-1.52447 -7,-3c-4.6492,-3.32086 -11.08126,-2.08126 -15,-6c-6.93084,-6.93084 -59.79212,-22.58424 -61,-25c-8.26081,-16.52163 -69.99436,-25.98871 -72,-30c-3.75937,-7.51874 -10.16242,-21.32484 -14,-29c-3.25544,-6.51089 -25.50482,10.25241 -27,11" fill="none" stroke="black" stroke-linecap="round" stroke-width="5"/>
	<path d="M139,186c0,12.66667 0,25.33333 0,38c0,1 0.85749,2.4855 0,3c-7.29144,4.37486 -25.86201,0 -35,0" fill="none" stroke="black" stroke-linecap="round" stroke-width="5"/>
	<path d="M163,192c0,15.0744 -2,30.22801 -2,45c0,1.57991 -0.70575,3 1,3" fill="none" stroke="black" stroke-linecap="round" stroke-width="5"/>
</svg>
