<?xml version="1.0" ?>
<svg baseProfile="full" height="300" version="1.1" viewBox="[0, 0, 300, 300]" width="300" xmlns="http://www.w3.org/2000/svg" xmlns:ev="http://www.w3.org/2001/xml-events" xmlns:xlink="http://www.w3.org/1999/xlink">
	<defs/>
	<path d="M71,102c0,-16.28409 53.34403,-29.43732 63,-23c11.69785,7.79857 -0.46543,41.29559 16,46c7.67087,2.19168 20.97316,-1.51342 28,2c8.65163,4.32581 16.72921,9.8646 25,14c7.16948,3.58474 17.18301,0.5915 24,4c0.81834,0.40917 7,7 7,7c0,0 -4.66667,0 -7,0c-14.62824,0 -24.91721,-4.65287 -39,-7c-0.8563,-0.14272 -5.04911,-1.31696 -6,-1c-13.33779,4.44593 -15.4013,35.43312 -54,29c-43.81766,-7.30294 -27.79008,-35.58015 -39,-58c-3.42795,-6.85589 -29.00086,13.99828 -33,6c-6.19862,-12.39725 11.38172,-26 21,-26" fill="none" stroke="black" stroke-linecap="round" stroke-width="5"/>
	<path d="M55,110c-5.31861,0 -12.97561,-1.02439 -17,3c-4.62919,4.62919 21.51867,3 27,3" fill="none" stroke="black" stroke-linecap="round" stroke-width="5"/>
	<path d="M129,174c0,-1.33333 0,2.66667 0,4c0,3.88769 -1.51846,7.29614 -3,11c-2.9805,7.45124 -7.75874,14.51747 -11,21c-0.82557,1.65115 0.1783,6.8217 -1,8c-7.45932,7.45932 -32.02954,6.51477 -43,12" fill="none" stroke="black" stroke-linecap="round" stroke-width="5"/>
	<path d="M113,218c0,-8.28469 22.01865,25.01865 24,27" fill="none" stroke="black" stroke-linecap="round" stroke-width="5"/>
	<path d="M164,166c0,-4.61394 11.41957,17.96813 12,19c10.7305,19.07645 24.96738,27.1617 10,44c-2.44024,2.74527 -5.45289,9 -9,9" fill="none" stroke="black" stroke-linecap="round" stroke-width="5"/>
	<path d="M189,212c11.19974,0 17.37736,15 30,15" fill="none" stroke="black" stroke-linecap="round" stroke-width="5"/>
</svg>
