<?xml version="1.0" ?>
<svg baseProfile="full" height="300" version="1.1" viewBox="[0, 0, 300, 300]" width="300" xmlns="http://www.w3.org/2000/svg" xmlns:ev="http://www.w3.org/2001/xml-events" xmlns:xlink="http://www.w3.org/1999/xlink">
	<defs/>
	<path d="M133,181c0,-2.38864 -4.09139,5.18278 -5,7c-1.94983,3.89966 -1,11.5414 -1,17" fill="none" stroke="black" stroke-linecap="round" stroke-width="5"/>
	<path d="M169,176c0,2.39751 -2.29163,19.70837 0,22c2.68742,2.68742 11.68742,4.31258 9,7c-1.17851,1.17851 -2.82149,-1.82149 -4,-3c-2.50555,-2.50555 -6.41535,10.1693 -8,7c-0.03004,-0.06008 -9,-23.46735 -9,-9" fill="none" stroke="black" stroke-linecap="round" stroke-width="5"/>
	<path d="M129,202c-4.6542,0 -6.80507,2.80507 -10,6c-1.17851,1.17851 -3,5.66667 -3,4c0,-3.45438 -0.32683,-6.68293 1,-10c3.62968,-9.07419 9.61115,6.69443 11,6c3.75739,-1.87869 0.28236,-9.23921 7,-7c1.34164,0.44721 2.21554,1.8233 3,3c1.00179,1.50268 3,1.5994 3,3" fill="none" stroke="black" stroke-linecap="round" stroke-width="5"/>
	<path d="M130,170c-9.92124,0 -25.92214,-23.76641 -29,-33c-2.02949,-6.08848 1.00931,-13.97208 -1,-20c-2.43076,-7.29227 -8.00376,-18.50188 -15,-22c-1.48512,-0.74256 -5.86695,1.13305 -7,0c-0.38964,-0.38964 0,-3.38976 0,-4c0,-6.28566 24.00275,-28.00137 30,-31c29.50542,-14.75271 50.02691,41.02018 70,56c3.69283,2.76962 10.8172,3.32688 15,5c26.37885,10.55154 52.11424,18.11424 70,36c1.7794,1.7794 -1.08635,6.3909 -2,7c-9.66705,6.4447 -25.77111,2 -38,2c-24.83238,0 -42.96287,14 -68,14c-4.85483,0 -33,-1.60428 -33,-7" fill="none" stroke="black" stroke-linecap="round" stroke-width="5"/>
</svg>
