<?xml version="1.0" ?>
<svg baseProfile="full" height="300" version="1.1" viewBox="[0, 0, 300, 300]" width="300" xmlns="http://www.w3.org/2000/svg" xmlns:ev="http://www.w3.org/2001/xml-events" xmlns:xlink="http://www.w3.org/1999/xlink">
	<defs/>
	<path d="M146,144c-20.15277,0 -4.0885,-24.45575 5,-29c0.20767,-0.10383 3,-1.25568 3,-2c0,-0.63103 -6.96297,3.48148 -8,4c-2.56482,1.28241 -13.93778,4.93778 -16,7c-2.34114,2.34114 -7.56585,3.56585 -10,6c-4.77522,4.77522 -3.80745,14.80745 -9,20c-1.09843,1.09843 0.36728,3 -2,3" fill="none" stroke="black" stroke-linecap="round" stroke-width="5"/>
	<path d="M126,155c-6.99381,0 -25.59545,-4.40455 -31,1c-2.24912,2.24912 -7.42267,11.21134 -11,13" fill="none" stroke="black" stroke-linecap="round" stroke-width="5"/>
	<path d="M84,169c10.5456,0 20.72272,2 31,2c0.74536,0 2.52705,0.47295 2,1c-1.21197,1.21197 1,-15.02207 1,-12" fill="none" stroke="black" stroke-linecap="round" stroke-width="5"/>
	<path d="M125,152c13.17832,-13.17832 -4.59352,5 0,5" fill="none" stroke="black" stroke-linecap="round" stroke-width="5"/>
	<path d="M112,171c0,12.31623 0.98821,23.98821 9,32c2.25167,2.25167 8.33089,-1.00183 11,1c7.10194,5.32646 18.91371,24.87056 25,34c1.70469,2.55704 -5.92682,2 -9,2c-7.15274,0 -5.19113,8.19113 -9,12c-1,1 -5,-1 -6,0c-0.55651,0.55651 11.08732,1 13,1" fill="none" stroke="black" stroke-linecap="round" stroke-width="5"/>
	<path d="M154,238c2.86385,0 15.15338,-11.69323 17,-8c2.52453,5.04907 -12.39924,17.60076 -8,22c2.44997,2.44997 10.06275,-1.03137 14,-3c1.7216,-0.8608 3.90232,-4 3,-4" fill="none" stroke="black" stroke-linecap="round" stroke-width="5"/>
	<path d="M174,228c3.1287,-3.1287 4.96962,-23 10,-23c1,0 0,2 0,3c0,19.1398 22.09492,9.06328 34,17c0.86382,0.57588 1,4 1,4c0,0 -4,-4.63306 -4,-8c0,-6.3115 12,-6.88437 12,-12c0,-1.44805 -21.23707,2.38147 -22,2c-7.45635,-3.72818 -11.72789,-6.72789 -18,-13c-2.26061,-2.26061 -11,-14.68546 -11,-17c0,-1.65372 6.11544,-8.88456 6,-9c-1.79287,-1.79287 -11.08581,-1.08581 -13,-3c-1.12108,-1.12108 0.73735,-5.52529 0,-7c-3.07203,-6.14406 -19.79189,-18 -25,-18c-1.41126,0 -3,-0.671 -3,1" fill="none" stroke="black" stroke-linecap="round" stroke-width="5"/>
</svg>
