<?xml version="1.0" ?>
<svg baseProfile="full" height="300" version="1.1" viewBox="[0, 0, 300, 300]" width="300" xmlns="http://www.w3.org/2000/svg" xmlns:ev="http://www.w3.org/2001/xml-events" xmlns:xlink="http://www.w3.org/1999/xlink">
	<defs/>
	<path d="M101,103c0,-12.95482 24.14656,-43 37,-43c17.82618,0 6.97169,38.97169 12,44c5.11684,5.11684 18.66767,14.33384 26,18c4.51239,2.25619 11.88174,0.58782 17,4c9.73262,6.48841 8.59558,21.73038 18,28c1.10543,0.73696 2.78557,0.78557 4,2c1.58114,1.58114 3.78355,2.70447 6,3c3.64949,0.4866 7.3233,0.80649 11,1c4.37089,0.23005 56.98356,3.03289 51,15c-2.57068,5.14135 -67.04348,7.5913 -75,6c-4.85276,-0.97055 -14.94646,-12.52677 -24,-8c-10.98181,5.49091 6.55753,35.11062 -5,38c-7.82594,1.95648 -25.58585,1.13805 -32,-1c-9.77247,-3.25749 -53.43073,-48.29218 -57,-59c-1.93067,-5.792 -2,-13.66326 -2,-20" fill="none" stroke="black" stroke-linecap="round" stroke-width="5"/>
	<path d="M126,65c0,-3.04272 -7.09532,5.64298 -8,7c-4.96829,7.45243 -8.87232,14.24821 -16,19c-10.16544,6.77696 -30.78173,13.19543 -42,16c-2.44538,0.61135 -11.44451,-1.55549 -13,0c-0.67246,0.67246 7.85985,4.93994 8,5c5.01364,2.1487 22.7577,1.7577 24,3c9.16115,9.16115 7.79002,46 28,46" fill="none" stroke="black" stroke-linecap="round" stroke-width="5"/>
	<path d="M125,192c0,13.69035 0.57159,21.47614 -10,25c-2.17047,0.72349 -7.50489,4.50489 -9,6c-1,1 -3,4.41421 -3,3c0,-1.60955 4.1824,-1.5912 5,-2c5.9703,-2.98515 14.44607,-4.70262 20,-1c1.80923,1.20615 7.17856,5.17856 3,1" fill="none" stroke="black" stroke-linecap="round" stroke-width="5"/>
	<path d="M155,210c0,8.52029 3.24807,10.50386 -1,19c-1.66556,3.33112 -2,-2.42076 -2,-4" fill="none" stroke="black" stroke-linecap="round" stroke-width="5"/>
	<path d="M152,215c0,6.24348 15.75935,15 20,15" fill="none" stroke="black" stroke-linecap="round" stroke-width="5"/>
	<path d="M143,120c-2.24158,0 1.44932,10.16442 2,12c6.35239,21.17464 17.02523,37.18033 37,48c5.30038,2.87104 17,8.49944 17,0" fill="none" stroke="black" stroke-linecap="round" stroke-width="5"/>
	<path d="M99,108c-1.05409,-1.05409 -2.50929,-2 -4,-2" fill="none" stroke="black" stroke-linecap="round" stroke-width="5"/>
	<path d="M143,89c0,10.52321 -14.47486,8.47486 -20,14c-0.2357,0.2357 -0.10541,0.68377 0,1c4.0149,12.0447 11.60002,38 -10,38" fill="none" stroke="black" stroke-linecap="round" stroke-width="5"/>
	<path d="M77,105c2.7927,0 5.66333,1.44222 8,3c5.67238,3.78159 -35.18482,3 -15,3c2,0 4,0 6,0c2.68742,0 -5.32902,-0.70322 -8,-1c-1.53067,-0.17007 -18,-5 -18,-5c0,0 22.4497,-8.4497 12,2" fill="none" stroke="black" stroke-linecap="round" stroke-width="5"/>
</svg>
