<?xml version="1.0" ?>
<svg baseProfile="full" height="300" version="1.1" viewBox="[0, 0, 300, 300]" width="300" xmlns="http://www.w3.org/2000/svg" xmlns:ev="http://www.w3.org/2001/xml-events" xmlns:xlink="http://www.w3.org/1999/xlink">
	<defs/>
	<path d="M188,241c-3.38196,0 -15.70269,-38.29731 -7,-47c7.43174,-7.43174 37.35176,24.35176 40,27c3.28295,3.28295 8.28295,16.28295 5,13c-1.32469,-1.32469 1.45367,-4.90734 2,-6c5.15959,-10.31917 14.42085,-13 27,-13c3.17546,0 17.28812,-0.71188 17,-1c-1,-1 -4,0 -5,-1c-22.06888,-22.06888 -84.5548,-28.5548 -95,-39c-1.66667,-1.66667 2.66667,-0.33333 1,-2c-0.95898,-0.95898 -7.49523,0 -9,0c-14.55015,0 -26.91325,-2.95663 -39,-9c-4.40153,-2.20077 -27.57856,-51.15711 -31,-58c-2.67695,-5.35389 -0.79762,-15.79762 -5,-20c-0.34552,-0.34552 -1.92731,5.85461 -2,6c-1.91984,3.83967 -1.99614,14.33205 -7,16c-7.03419,2.34473 -35.18335,10.3667 -37,14c-10.30672,20.61345 11.66026,22 25,22c0.67979,0 6,0 6,0c0,0 -2.56708,0.56708 -3,1c-4.77096,4.77096 -7.40767,6.22301 -10,14c-3.91718,11.75154 7.23534,25.35301 13,34c11.85257,17.77886 41.55933,9.51187 59,13c6.77281,1.35456 38.99684,12.99684 44,18c1.17375,1.17375 4.26366,11 6,11c1.62877,0 -1.77448,-5.77448 -2,-6" fill="none" stroke="black" stroke-linecap="round" stroke-width="5"/>
	<path d="M104,205c0,6.05537 -26.30161,60 -39,60c-1.37044,0 6.37515,-5.73221 7,-6c4.53638,-1.94416 14.41032,-8 19,-8c0.0266,0 -0.04287,5.82851 0,6c0.83235,3.32941 5,5.56812 5,9" fill="none" stroke="black" stroke-linecap="round" stroke-width="5"/>
	<path d="M144,212c0,5.58253 -25.48684,44.99248 -29,47c-2.73033,1.56019 -5.77639,7.22361 -8,5c-3.81169,-3.81169 15.53454,-10.46546 18,-8c2.20727,2.20727 9.16243,15.16243 6,12" fill="none" stroke="black" stroke-linecap="round" stroke-width="5"/>
	<path d="M48,125c0,2.70034 -25.78825,14.21175 -24,16c5.96541,5.96541 18.02253,-4.7669 25,-10c0.48223,-0.36168 2.53314,-3.46686 2,-4c-1.29528,-1.29528 -22,9.00501 -22,9c0,-2.30422 12.62212,-12 12,-12c-6.12287,0 -14.58169,13 -19,13c-0.4714,0 -1.42164,0.78918 -1,1c7.64213,3.82107 18.49735,-5 26,-5" fill="none" stroke="black" stroke-linecap="round" stroke-width="5"/>
</svg>
