<?xml version="1.0" ?>
<svg baseProfile="full" height="300" version="1.1" viewBox="[0, 0, 300, 300]" width="300" xmlns="http://www.w3.org/2000/svg" xmlns:ev="http://www.w3.org/2001/xml-events" xmlns:xlink="http://www.w3.org/1999/xlink">
	<defs/>
	<path d="M133,33c-20.30247,0 -33.18046,13.59023 -50,22c-4.38112,2.19056 -18.23899,2.23899 -21,5c-0.46489,0.46489 4.93581,2 5,2c5.0727,0 7.37958,3 13,3" fill="none" stroke="black" stroke-linecap="round" stroke-width="5"/>
	<path d="M133,33c0,16.00528 8.04831,43.52416 21,50c9.17686,4.58843 20.68507,5.68507 28,13c7.8784,7.8784 9.15501,29.15501 14,34c5.44873,5.44873 13.36269,8.68135 20,12c10.69431,5.34715 46.65285,7.65285 52,13c2.48908,2.48908 0.59105,25.18209 -5,14" fill="none" stroke="black" stroke-linecap="round" stroke-width="5"/>
	<path d="M267,161c0,5.86783 -4.67106,9.67106 -8,13c-1.66667,1.66667 -1.33333,5.33333 -3,7c-1.54899,1.54899 -3.90996,-2.72749 -5,-3c-6.98353,-1.74588 -46.0459,-22.9541 -52,-17c-2.63071,2.63071 -0.50959,11.50959 -3,14c-2.11342,2.11342 -12.91546,-0.77114 -16,0c-32.79797,8.19949 -72.85246,-18.85246 -96,-42c-3.70947,-3.70947 -15.92271,-48.11594 -12,-54c2.54508,-3.81761 8,-11.30326 8,-15" fill="none" stroke="black" stroke-linecap="round" stroke-width="5"/>
	<path d="M176,180c0,14.7315 -1.19441,17.73147 -14,22c-1.41421,0.4714 -4,2 -4,2c0,0 5.09965,-2.54983 6,-3c0.72494,-0.36247 5.86966,-0.93483 4,0c-7.39238,3.69619 -0.69505,0.69505 4,-4c0.19392,-0.19392 2.81331,4 4,4" fill="none" stroke="black" stroke-linecap="round" stroke-width="5"/>
	<path d="M143,173c0,6.68153 1.52697,25.47303 -3,30c-0.93882,0.93882 -2.71997,-5.71997 -3,-6c-0.68765,-0.68765 -10.94279,2.94279 -12,4" fill="none" stroke="black" stroke-linecap="round" stroke-width="5"/>
	<path d="M139,194c0,0.6079 5.2733,3 6,3" fill="none" stroke="black" stroke-linecap="round" stroke-width="5"/>
	<path d="M170,199c4.12836,0 7.57499,4 10,4" fill="none" stroke="black" stroke-linecap="round" stroke-width="5"/>
	<path d="M78,65c11.68558,0 33.96045,-1.98023 44,-7c0.59733,-0.29866 6,-2 6,-2c0,0 -4.66667,0 -7,0c-14.83656,0 -29.27037,5 -44,5c-0.75905,0 -6,0 -6,0c0,0 11.96696,-1.99009 12,-2c16.94776,-5.08433 30.35881,-4 47,-4" fill="none" stroke="black" stroke-linecap="round" stroke-width="5"/>
	<path d="M135,68c0,23.79862 -25.01081,65.9982 5,71c16.1197,2.68662 41.48482,6.51518 53,-5c1.54052,-1.54052 -13.06116,-0.06116 -14,-1c-2.40003,-2.40003 9,-17.00699 9,-21c0,-0.33333 0,-1.33333 0,-1c0,1.83602 3,18 3,18c0,0 0.16663,-12.33325 -1,-10c-1.27536,2.55071 -15.19631,17 -16,17" fill="none" stroke="black" stroke-linecap="round" stroke-width="5"/>
	<path d="M178,97c10.94054,0 -8.48406,42 -12,42c-1.37437,0 -0.56539,-2.69616 -1,-4c-6.56424,-19.69273 2,-36.37087 2,-55c0,-3.07318 -1.22426,6.02634 -2,9c-0.02851,0.10929 -9.68514,30.62972 -7,36c0.59173,1.18346 17,-17 17,-17l-7,18l1,-27c0,0 -0.81922,1.2769 -1,2c-1.96747,7.86988 -6,16.84922 -6,25c0,0.33333 -0.08085,1.32338 0,1c2.19958,-8.79834 5.77996,-17.11982 8,-26c0.18078,-0.7231 1,-2.74536 1,-2c0,3.60555 -4,6 -6,9c-1.74434,2.61652 -3.25566,5.38348 -5,8c-1.59057,2.38586 -3.35563,4.6509 -5,7c-5.81837,8.31196 -3,-29 -3,-29c0,0 0.24759,1.38102 0,2c-1.68382,4.20955 -3.11084,8.55422 -4,13c-0.53907,2.69536 -1.13077,10.60768 -2,8c-3.93693,-11.81078 2,-28.81346 2,-41c0,-1.05409 -0.55117,2.04624 -1,3c-2.79574,5.94095 -4.35789,12.53684 -8,18c-1.67298,2.50946 0.06717,-6.13433 -1,-4c-0.20498,0.40996 -10.08208,46.91792 -5,52c0.9957,0.9957 11.07098,-21.07098 13,-23c1.30136,-1.30136 1.80381,9.19619 3,8c4.15421,-4.15421 3.98544,-14.05825 6,-6c0.6157,2.4628 1.20495,5.20495 3,7c1.31041,1.31041 5.66596,-1.33404 4,-3c-1.5996,-1.5996 -6,2.24076 -6,-2" fill="none" stroke="black" stroke-linecap="round" stroke-width="5"/>
	<path d="M126,92c-7.06061,0 -35.47824,12 -51,12" fill="none" stroke="black" stroke-linecap="round" stroke-width="5"/>
	<path d="M241,154c5.85027,0 12.32712,3 18,3c1.66667,0 -3.33333,0 -5,0c-3.33433,0 -6.90473,0.54764 -10,-1c-0.66667,-0.33333 1.29289,0.7643 2,1c4.66905,1.55635 13,7 13,7c0,0 -14.33333,-3.66667 -11,-2c16.09102,8.04551 -5,0 -5,0l12,7c0,0 -32.04428,0 -15,0" fill="none" stroke="black" stroke-linecap="round" stroke-width="5"/>
</svg>
