<?xml version="1.0" ?>
<svg baseProfile="full" height="300" version="1.1" viewBox="[0, 0, 300, 300]" width="300" xmlns="http://www.w3.org/2000/svg" xmlns:ev="http://www.w3.org/2001/xml-events" xmlns:xlink="http://www.w3.org/1999/xlink">
	<defs/>
	<path d="M130,135c-1.54688,0 -2.77632,1.18421 -4,2c-16.62158,11.08105 -1.0672,-2.0336 9,3c1.78885,0.89443 0,4 0,6c0,10.56544 3.29284,22.58568 8,32c11.80839,23.61679 24.31491,20.31491 40,36c12.18483,12.18483 37.72616,-11.63692 53,-4c7.7724,3.8862 29.26816,14.73184 39,5c1.1205,-1.1205 -6.02742,-1 -7,-1c-2.95068,0 -12.36518,-5.24345 -15,-7c-8.6539,-5.76927 -17.68478,-3.56612 -27,-9c-9.76952,-5.69889 -15.03087,-12.01543 -25,-17c-15.83993,-7.91997 -14.79661,-20.69491 -23,-33c-5.21453,-7.8218 -18.49483,-8.98965 -22,-16c-1.2237,-2.4474 4.61056,-16.89824 4,-17c-16.29361,-2.7156 -23.05469,16 -36,16" fill="none" stroke="black" stroke-linecap="round" stroke-width="5"/>
	<path d="M203,180c-6.83506,0 -13.98106,16.98106 -19,22" fill="none" stroke="black" stroke-linecap="round" stroke-width="5"/>
	<path d="M159,131c-6.13804,6.13804 -5.60412,17.60412 -11,23c-6.91554,6.91554 -15.8717,11.8717 -23,19" fill="none" stroke="black" stroke-linecap="round" stroke-width="5"/>
</svg>
