<?xml version="1.0" ?>
<svg baseProfile="full" height="300" version="1.1" viewBox="[0, 0, 300, 300]" width="300" xmlns="http://www.w3.org/2000/svg" xmlns:ev="http://www.w3.org/2001/xml-events" xmlns:xlink="http://www.w3.org/1999/xlink">
	<defs/>
	<path d="M163,96c0,-9.59845 -4.0275,-17.08249 -7,-26c-9.12283,-27.3685 -36.87212,10.87212 -45,19c-4.42968,4.42968 -24.28036,2.28036 -32,10c-2.25254,2.25254 17.17436,5.34872 18,7c2.97804,5.95608 -0.24377,23.75623 4,28c3.59946,3.59946 9.08787,4.08787 12,7c0.98558,0.98558 6,0.03518 6,-1c0,-0.73054 0.6335,-3.267 1,-4c4.00317,-8.00633 8.07654,-1.53827 15,-5c6.16773,-3.08386 7.54381,-15.54381 13,-21" fill="none" stroke="black" stroke-linecap="round" stroke-width="5"/>
	<path d="M109,141c0.83553,0 7.79673,15.79673 10,18c8.65099,8.65099 22.52478,15.76239 33,21c21.35967,10.67984 30.564,-13.359 56,-7c5.42273,1.35568 43.74865,16.25135 48,12c0.4233,-0.4233 -3.04915,-4.04915 -4,-5c-12.5439,-12.5439 -27.84523,-19.92261 -42,-27c-26.23884,-13.11942 -4.91967,-53 -50,-53" fill="none" stroke="black" stroke-linecap="round" stroke-width="5"/>
	<path d="M123,96c-5.93777,0 -2.64206,2 3,2" fill="none" stroke="black" stroke-linecap="round" stroke-width="5"/>
	<path d="M188,136c0,33.494 -28.63106,10 -45,10" fill="none" stroke="black" stroke-linecap="round" stroke-width="5"/>
	<path d="M137,174c0,9.22856 -3.68912,30 -15,30c-0.17173,0 -3.02843,1.97157 -3,2c2.77876,2.77876 16.34306,-19.32847 23,-16c3.46472,1.73236 2,9.9618 2,13c0,2.02759 0.71326,8.00721 1,6c0.50772,-3.55403 2.00857,-12.98715 4,-10c1.93041,2.89562 3,13.4801 3,10c0,-11.5213 -14,-20.06498 -14,-30" fill="none" stroke="black" stroke-linecap="round" stroke-width="5"/>
	<path d="M170,185c0,7.33333 0,14.66667 0,22c0,3.66667 2.59272,13.59272 0,11c-0.93216,-0.93216 -3.05724,-8.94276 -2,-10c2.27957,-2.27957 9.82001,6.35998 10,6c1.43152,-2.86304 -2.19267,-10.12844 4,-6c1.38675,0.9245 2.33333,3 4,3c2.28258,0 -6.45002,-11.45002 -7,-12c-8.07205,-8.07205 -9,-16.6413 -9,-28" fill="none" stroke="black" stroke-linecap="round" stroke-width="5"/>
	<path d="M99,96c0,21.21101 9.13976,-3.86024 8,-5c-1.15214,-1.15214 -22.09298,9.90702 -22,10c1.72442,1.72442 14.29022,0 17,0" fill="none" stroke="black" stroke-linecap="round" stroke-width="5"/>
</svg>
