<?xml version="1.0" ?>
<svg baseProfile="full" height="300" version="1.1" viewBox="[0, 0, 300, 300]" width="300" xmlns="http://www.w3.org/2000/svg" xmlns:ev="http://www.w3.org/2001/xml-events" xmlns:xlink="http://www.w3.org/1999/xlink">
	<defs/>
	<path d="M54,118c0,2.59238 -8.96614,9.3559 -8,10c2.4064,1.60427 9.25676,0.25676 11,2c4.07918,4.07918 -3.96497,42.01168 11,47c10.35976,3.45325 21.00922,4 32,4c1,0 3,-1 3,0c0,8.86345 -22,33.26907 -22,33" fill="none" stroke="black" stroke-linecap="round" stroke-width="5"/>
	<path d="M83,209c-3.23038,3.23038 -9.26819,10 -13,10" fill="none" stroke="black" stroke-linecap="round" stroke-width="5"/>
	<path d="M80,214c4.01804,0 7.22117,12.61059 12,15" fill="none" stroke="black" stroke-linecap="round" stroke-width="5"/>
	<path d="M82,218c0,2.4197 1.39528,8 -2,8" fill="none" stroke="black" stroke-linecap="round" stroke-width="5"/>
	<path d="M107,180c3.56036,8.9009 8.78687,12 18,12" fill="none" stroke="black" stroke-linecap="round" stroke-width="5"/>
	<path d="M122,192c-4.35721,8.71442 -5.08484,22.28279 -8,32c-0.42835,1.42784 -0.50929,4 -2,4" fill="none" stroke="black" stroke-linecap="round" stroke-width="5"/>
	<path d="M111,227c-2.97351,0 -13,2.10173 -13,5" fill="none" stroke="black" stroke-linecap="round" stroke-width="5"/>
	<path d="M112,226c0,4.07007 9,7.87329 9,11" fill="none" stroke="black" stroke-linecap="round" stroke-width="5"/>
	<path d="M111,227c-3.03855,0 -1.36497,6 -4,6" fill="none" stroke="black" stroke-linecap="round" stroke-width="5"/>
	<path d="M125,191c2.20644,0 16.11097,-8 31,-8c2.85337,0 22.22129,4.77871 23,4c1.59991,-1.59991 -5.34226,-8.34226 -6,-9c-11.38864,-11.38864 -35.06879,-8.06879 -45,-18c-15.10018,-15.10018 -11.41425,-40.20712 -37,-53c-11.815,-5.9075 -35,10.57959 -35,15" fill="none" stroke="black" stroke-linecap="round" stroke-width="5"/>
</svg>
